<svg width="89" height="41" viewBox="0 0 89 41" fill="none" xmlns="http://www.w3.org/2000/svg">
<g filter="url(#filter0_i_1_2)">
<path d="M31.502 18.6768C31.502 21.1833 31.1797 23.4481 30.5352 25.4712C29.8906 27.4764 28.9865 29.2668 27.8228 30.8423C26.6769 32.3999 25.3073 33.7427 23.7139 34.8706C22.1204 35.9985 20.3748 36.9295 18.4771 37.6636C16.5793 38.3797 14.5562 38.9168 12.4077 39.2749C10.2772 39.6151 8.08398 39.7852 5.82812 39.7852C4.98665 39.7852 4.16309 39.7673 3.35742 39.7314C2.55176 39.6777 1.72819 39.6061 0.886719 39.5166L1.63867 3.47656C3.60807 2.84993 5.63118 2.4113 7.70801 2.16064C9.80273 1.89209 11.8796 1.75781 13.9385 1.75781C16.4987 1.75781 18.853 2.14274 21.0015 2.9126C23.1499 3.68245 25.0029 4.79248 26.5605 6.24268C28.1182 7.69287 29.3267 9.46533 30.186 11.5601C31.0633 13.6548 31.502 16.027 31.502 18.6768ZM20.4912 20.3955C20.5091 19.4287 20.4017 18.4977 20.1689 17.6025C19.9541 16.7074 19.5871 15.9196 19.0679 15.2393C18.5666 14.541 17.922 13.986 17.1343 13.5742C16.3465 13.1445 15.4066 12.9118 14.3145 12.876L13.2402 29.5264C14.3145 29.3652 15.2902 29.0161 16.1675 28.479C17.0448 27.924 17.7967 27.2526 18.4233 26.4648C19.0679 25.6592 19.5602 24.7729 19.9004 23.8062C20.2585 22.8215 20.4554 21.8099 20.4912 20.7715V20.3955ZM59.7539 2.24121L58.25 13.5742C57.7308 13.431 57.2116 13.3325 56.6924 13.2788C56.1732 13.2251 55.654 13.1982 55.1348 13.1982C53.8099 13.1982 52.5477 13.3773 51.3481 13.7354C50.1486 14.0755 49.0833 14.6037 48.1523 15.3198C47.2393 16.036 46.5052 16.9312 45.9502 18.0054C45.4131 19.0796 45.1445 20.3418 45.1445 21.792C45.1445 22.723 45.2878 23.5286 45.5742 24.209C45.8786 24.8893 46.2993 25.4533 46.8364 25.9009C47.3735 26.3485 48.0091 26.6797 48.7432 26.8945C49.4772 27.1094 50.2829 27.2168 51.1602 27.2168C51.8226 27.2168 52.5119 27.1452 53.228 27.002C53.9442 26.8587 54.6514 26.6707 55.3496 26.438C56.0479 26.2052 56.7282 25.9367 57.3906 25.6323C58.0531 25.328 58.6618 25.0146 59.2168 24.6924L58.1426 37.3145C57.4443 37.6725 56.6834 37.9948 55.8599 38.2812C55.0542 38.5498 54.2217 38.7915 53.3623 39.0063C52.5029 39.2033 51.6436 39.3555 50.7842 39.4629C49.9248 39.5703 49.1012 39.624 48.3135 39.624C46.0397 39.624 43.9181 39.2033 41.9487 38.3618C39.9793 37.5203 38.2695 36.3656 36.8193 34.8975C35.3691 33.4294 34.2233 31.7017 33.3818 29.7144C32.5583 27.7091 32.1465 25.5518 32.1465 23.2422C32.1465 20.1807 32.5851 17.2982 33.4624 14.5947C34.3397 11.8734 35.6287 9.49219 37.3296 7.45117C39.0304 5.41016 41.1341 3.79883 43.6406 2.61719C46.165 1.43555 49.0654 0.844727 52.3418 0.844727C53.5771 0.844727 54.8394 0.943197 56.1284 1.14014C57.4354 1.33708 58.6439 1.7041 59.7539 2.24121ZM88.9458 25.7129C88.9458 28.1657 88.5161 30.3141 87.6567 32.1582C86.8153 33.9844 85.6515 35.5062 84.1655 36.7236C82.6974 37.9411 80.9697 38.8542 78.9824 39.4629C77.013 40.0716 74.8914 40.376 72.6177 40.376C71.7404 40.376 70.7736 40.2596 69.7173 40.0269C68.6789 39.7941 67.6226 39.5076 66.5483 39.1675C65.4741 38.8094 64.4357 38.4334 63.4331 38.0396C62.4484 37.6278 61.5711 37.2428 60.8013 36.8848L61.9829 25.8203C63.5047 26.7334 65.1877 27.4316 67.0317 27.915C68.8937 28.3805 70.7199 28.6133 72.5103 28.6133C72.8504 28.6133 73.2622 28.6043 73.7456 28.5864C74.229 28.5506 74.6855 28.4701 75.1152 28.3447C75.5628 28.2015 75.9388 27.9956 76.2432 27.7271C76.5475 27.4585 76.6997 27.0736 76.6997 26.5723C76.6997 26.2321 76.5923 25.9456 76.3774 25.7129C76.1626 25.4622 75.8851 25.2653 75.5449 25.1221C75.2048 24.9609 74.8198 24.8446 74.3901 24.7729C73.9604 24.6834 73.5397 24.6208 73.1279 24.585C72.7161 24.5492 72.3312 24.5312 71.9731 24.5312C71.6151 24.5312 71.3286 24.5312 71.1138 24.5312C69.5741 24.5312 68.1686 24.2627 66.8975 23.7256C65.6442 23.1885 64.561 22.4455 63.6479 21.4966C62.7528 20.5298 62.0545 19.3929 61.5532 18.0859C61.0519 16.7611 60.8013 15.3288 60.8013 13.7891C60.8013 11.6764 61.222 9.7876 62.0635 8.12256C62.9229 6.43962 64.0597 5.01628 65.4741 3.85254C66.9064 2.6709 68.5446 1.76676 70.3887 1.14014C72.2327 0.513509 74.1395 0.200195 76.1089 0.200195C76.9862 0.200195 77.8903 0.236003 78.8213 0.307617C79.7523 0.361328 80.6743 0.46875 81.5874 0.629883C82.5184 0.791016 83.4225 0.996908 84.2998 1.24756C85.1771 1.49821 86.0096 1.81152 86.7974 2.1875L85.7769 13.0908C84.5594 12.679 83.2793 12.3389 81.9365 12.0703C80.6117 11.7839 79.3136 11.6406 78.0425 11.6406C77.8097 11.6406 77.5054 11.6496 77.1294 11.6675C76.7713 11.6675 76.3864 11.6943 75.9746 11.748C75.5807 11.7839 75.1779 11.8465 74.7661 11.936C74.3543 12.0256 73.9873 12.1509 73.665 12.312C73.3428 12.4552 73.0832 12.6522 72.8862 12.9028C72.6893 13.1535 72.5998 13.4489 72.6177 13.7891C72.6356 14.1829 72.7788 14.5052 73.0474 14.7559C73.3338 14.9886 73.6919 15.1766 74.1216 15.3198C74.5692 15.4451 75.0526 15.5347 75.5718 15.5884C76.1089 15.6421 76.637 15.6779 77.1562 15.6958C77.6755 15.6958 78.1589 15.6958 78.6064 15.6958C79.054 15.6779 79.4211 15.6868 79.7075 15.7227C81.1398 15.8122 82.4289 16.1165 83.5747 16.6357C84.7205 17.1549 85.6873 17.8442 86.4751 18.7036C87.2808 19.563 87.8895 20.5924 88.3013 21.792C88.731 22.9736 88.9458 24.2806 88.9458 25.7129Z" fill="#34D399"/>
</g>
<defs>
<filter id="filter0_i_1_2" x="0.886719" y="0.200195" width="88.0591" height="44.1758" filterUnits="userSpaceOnUse" color-interpolation-filters="sRGB">
<feFlood flood-opacity="0" result="BackgroundImageFix"/>
<feBlend mode="normal" in="SourceGraphic" in2="BackgroundImageFix" result="shape"/>
<feColorMatrix in="SourceAlpha" type="matrix" values="0 0 0 0 0 0 0 0 0 0 0 0 0 0 0 0 0 0 127 0" result="hardAlpha"/>
<feOffset dy="4"/>
<feGaussianBlur stdDeviation="2"/>
<feComposite in2="hardAlpha" operator="arithmetic" k2="-1" k3="1"/>
<feColorMatrix type="matrix" values="0 0 0 0 0 0 0 0 0 0 0 0 0 0 0 0 0 0 0.25 0"/>
<feBlend mode="normal" in2="shape" result="effect1_innerShadow_1_2"/>
</filter>
</defs>
</svg>
