<svg width="119" height="119" viewBox="0 0 119 119" fill="none" xmlns="http://www.w3.org/2000/svg">
<circle cx="59.5" cy="59.5" r="59.5" fill="black"/>
<g filter="url(#filter0_i_0_1)">
<path d="M46.502 57.6768C46.502 60.1833 46.1797 62.4481 45.5352 64.4712C44.8906 66.4764 43.9865 68.2668 42.8228 69.8423C41.6769 71.3999 40.3073 72.7427 38.7139 73.8706C37.1204 74.9985 35.3748 75.9295 33.4771 76.6636C31.5793 77.3797 29.5562 77.9168 27.4077 78.2749C25.2772 78.6151 23.084 78.7852 20.8281 78.7852C19.9867 78.7852 19.1631 78.7673 18.3574 78.7314C17.5518 78.6777 16.7282 78.6061 15.8867 78.5166L16.6387 42.4766C18.6081 41.8499 20.6312 41.4113 22.708 41.1606C24.8027 40.8921 26.8796 40.7578 28.9385 40.7578C31.4987 40.7578 33.853 41.1427 36.0015 41.9126C38.1499 42.6825 40.0029 43.7925 41.5605 45.2427C43.1182 46.6929 44.3267 48.4653 45.186 50.5601C46.0633 52.6548 46.502 55.027 46.502 57.6768ZM35.4912 59.3955C35.5091 58.4287 35.4017 57.4977 35.1689 56.6025C34.9541 55.7074 34.5871 54.9196 34.0679 54.2393C33.5666 53.541 32.922 52.986 32.1343 52.5742C31.3465 52.1445 30.4066 51.9118 29.3145 51.876L28.2402 68.5264C29.3145 68.3652 30.2902 68.0161 31.1675 67.479C32.0448 66.924 32.7967 66.2526 33.4233 65.4648C34.0679 64.6592 34.5602 63.7729 34.9004 62.8062C35.2585 61.8215 35.4554 60.8099 35.4912 59.7715V59.3955ZM74.7539 41.2412L73.25 52.5742C72.7308 52.431 72.2116 52.3325 71.6924 52.2788C71.1732 52.2251 70.654 52.1982 70.1348 52.1982C68.8099 52.1982 67.5477 52.3773 66.3481 52.7354C65.1486 53.0755 64.0833 53.6037 63.1523 54.3198C62.2393 55.036 61.5052 55.9312 60.9502 57.0054C60.4131 58.0796 60.1445 59.3418 60.1445 60.792C60.1445 61.723 60.2878 62.5286 60.5742 63.209C60.8786 63.8893 61.2993 64.4533 61.8364 64.9009C62.3735 65.3485 63.0091 65.6797 63.7432 65.8945C64.4772 66.1094 65.2829 66.2168 66.1602 66.2168C66.8226 66.2168 67.5119 66.1452 68.228 66.002C68.9442 65.8587 69.6514 65.6707 70.3496 65.438C71.0479 65.2052 71.7282 64.9367 72.3906 64.6323C73.0531 64.328 73.6618 64.0146 74.2168 63.6924L73.1426 76.3145C72.4443 76.6725 71.6834 76.9948 70.8599 77.2812C70.0542 77.5498 69.2217 77.7915 68.3623 78.0063C67.5029 78.2033 66.6436 78.3555 65.7842 78.4629C64.9248 78.5703 64.1012 78.624 63.3135 78.624C61.0397 78.624 58.9181 78.2033 56.9487 77.3618C54.9793 76.5203 53.2695 75.3656 51.8193 73.8975C50.3691 72.4294 49.2233 70.7017 48.3818 68.7144C47.5583 66.7091 47.1465 64.5518 47.1465 62.2422C47.1465 59.1807 47.5851 56.2982 48.4624 53.5947C49.3397 50.8734 50.6287 48.4922 52.3296 46.4512C54.0304 44.4102 56.1341 42.7988 58.6406 41.6172C61.165 40.4355 64.0654 39.8447 67.3418 39.8447C68.5771 39.8447 69.8394 39.9432 71.1284 40.1401C72.4354 40.3371 73.6439 40.7041 74.7539 41.2412ZM103.946 64.7129C103.946 67.1657 103.516 69.3141 102.657 71.1582C101.815 72.9844 100.652 74.5062 99.1655 75.7236C97.6974 76.9411 95.9697 77.8542 93.9824 78.4629C92.013 79.0716 89.8914 79.376 87.6177 79.376C86.7404 79.376 85.7736 79.2596 84.7173 79.0269C83.6789 78.7941 82.6226 78.5076 81.5483 78.1675C80.4741 77.8094 79.4357 77.4334 78.4331 77.0396C77.4484 76.6278 76.5711 76.2428 75.8013 75.8848L76.9829 64.8203C78.5047 65.7334 80.1877 66.4316 82.0317 66.915C83.8937 67.3805 85.7199 67.6133 87.5103 67.6133C87.8504 67.6133 88.2622 67.6043 88.7456 67.5864C89.229 67.5506 89.6855 67.4701 90.1152 67.3447C90.5628 67.2015 90.9388 66.9956 91.2432 66.7271C91.5475 66.4585 91.6997 66.0736 91.6997 65.5723C91.6997 65.2321 91.5923 64.9456 91.3774 64.7129C91.1626 64.4622 90.8851 64.2653 90.5449 64.1221C90.2048 63.9609 89.8198 63.8446 89.3901 63.7729C88.9604 63.6834 88.5397 63.6208 88.1279 63.585C87.7161 63.5492 87.3312 63.5312 86.9731 63.5312C86.6151 63.5312 86.3286 63.5312 86.1138 63.5312C84.5741 63.5312 83.1686 63.2627 81.8975 62.7256C80.6442 62.1885 79.561 61.4455 78.6479 60.4966C77.7528 59.5298 77.0545 58.3929 76.5532 57.0859C76.0519 55.7611 75.8013 54.3288 75.8013 52.7891C75.8013 50.6764 76.222 48.7876 77.0635 47.1226C77.9229 45.4396 79.0597 44.0163 80.4741 42.8525C81.9064 41.6709 83.5446 40.7668 85.3887 40.1401C87.2327 39.5135 89.1395 39.2002 91.1089 39.2002C91.9862 39.2002 92.8903 39.236 93.8213 39.3076C94.7523 39.3613 95.6743 39.4688 96.5874 39.6299C97.5184 39.791 98.4225 39.9969 99.2998 40.2476C100.177 40.4982 101.01 40.8115 101.797 41.1875L100.777 52.0908C99.5594 51.679 98.2793 51.3389 96.9365 51.0703C95.6117 50.7839 94.3136 50.6406 93.0425 50.6406C92.8097 50.6406 92.5054 50.6496 92.1294 50.6675C91.7713 50.6675 91.3864 50.6943 90.9746 50.748C90.5807 50.7839 90.1779 50.8465 89.7661 50.936C89.3543 51.0256 88.9873 51.1509 88.665 51.312C88.3428 51.4552 88.0832 51.6522 87.8862 51.9028C87.6893 52.1535 87.5998 52.4489 87.6177 52.7891C87.6356 53.1829 87.7788 53.5052 88.0474 53.7559C88.3338 53.9886 88.6919 54.1766 89.1216 54.3198C89.5692 54.4451 90.0526 54.5347 90.5718 54.5884C91.1089 54.6421 91.637 54.6779 92.1562 54.6958C92.6755 54.6958 93.1589 54.6958 93.6064 54.6958C94.054 54.6779 94.4211 54.6868 94.7075 54.7227C96.1398 54.8122 97.4289 55.1165 98.5747 55.6357C99.7205 56.1549 100.687 56.8442 101.475 57.7036C102.281 58.563 102.889 59.5924 103.301 60.792C103.731 61.9736 103.946 63.2806 103.946 64.7129Z" fill="#34D399"/>
</g>
<defs>
<filter id="filter0_i_0_1" x="15.8867" y="39.2002" width="88.0591" height="44.1758" filterUnits="userSpaceOnUse" color-interpolation-filters="sRGB">
<feFlood flood-opacity="0" result="BackgroundImageFix"/>
<feBlend mode="normal" in="SourceGraphic" in2="BackgroundImageFix" result="shape"/>
<feColorMatrix in="SourceAlpha" type="matrix" values="0 0 0 0 0 0 0 0 0 0 0 0 0 0 0 0 0 0 127 0" result="hardAlpha"/>
<feOffset dy="4"/>
<feGaussianBlur stdDeviation="2"/>
<feComposite in2="hardAlpha" operator="arithmetic" k2="-1" k3="1"/>
<feColorMatrix type="matrix" values="0 0 0 0 0 0 0 0 0 0 0 0 0 0 0 0 0 0 0.25 0"/>
<feBlend mode="normal" in2="shape" result="effect1_innerShadow_0_1"/>
</filter>
</defs>
</svg>
